<svg width="36" height="36" viewBox="0 0 36 36" fill="none" xmlns="http://www.w3.org/2000/svg">
<rect width="36" height="36" rx="7.5" fill="#1D1C4D"/>
<path d="M27.735 14.4057C27.5154 14.0832 27.2706 13.7801 27.0057 13.4978C26.7652 13.2422 26.506 13.0032 26.2324 12.785C25.8465 12.4769 25.431 12.2083 24.9918 11.9851C24.8457 11.9109 24.6966 11.8411 24.5454 11.777C24.2128 11.6352 23.8694 11.5185 23.5187 11.4271C22.9002 11.2651 22.2587 11.1816 21.615 11.1816C20.4414 11.1816 19.27 11.4595 18.2282 11.9844C17.1309 12.5373 16.1747 13.3682 15.4641 14.3877L11.0303 20.7432C11.5329 21.1831 12.1269 21.4985 12.7756 21.6669L14.1962 19.6308L19.7567 18.6401L18.4672 20.4876C17.3685 22.0629 15.6434 22.8549 13.924 22.8549C13.6972 22.8549 13.4704 22.8413 13.2465 22.8132C12.8742 22.7685 12.5063 22.685 12.1499 22.5641C11.5343 22.356 10.9504 22.0349 10.432 21.6007C10.1656 21.3782 9.91647 21.1262 9.68967 20.844C9.59751 20.7302 9.50967 20.6114 9.42471 20.4869C8.88615 19.6977 8.50239 18.7841 8.32383 17.7818C7.98615 15.8861 8.44911 14.0313 9.47151 12.5661C10.4925 11.1017 12.0729 10.0267 13.9694 9.68902L27.4485 7.28782C27.455 7.2871 27.4622 7.28638 27.4686 7.28638C27.5536 7.28638 27.609 7.38358 27.5572 7.45846L25.1524 10.9058C25.2568 10.9541 25.3605 11.0037 25.4634 11.0556C25.9451 11.3004 26.403 11.5934 26.8293 11.9282L29.1657 8.5795C29.6078 7.94518 29.661 7.12438 29.3032 6.43822C28.9454 5.75278 28.2426 5.32654 27.4694 5.32654C27.3477 5.32654 27.2246 5.33734 27.1043 5.35894L13.6259 7.76014C12.4386 7.97182 11.3277 8.40958 10.3233 9.06262C9.35415 9.69262 8.52615 10.4947 7.86303 11.4465C7.19991 12.3977 6.73263 13.4517 6.47631 14.5785C6.21063 15.7464 6.18327 16.9401 6.39423 18.1267C6.61743 19.3802 7.09263 20.5466 7.80543 21.5921C8.02503 21.9146 8.26911 22.2177 8.53479 22.5C8.77527 22.7563 9.03375 22.9946 9.30807 23.2128C9.69399 23.5209 10.1094 23.7895 10.5486 24.0127C10.6948 24.0869 10.8438 24.1567 10.995 24.2208C11.327 24.3626 11.6704 24.4793 12.021 24.5707C12.6395 24.7327 13.281 24.8162 13.9247 24.8162C15.0983 24.8162 16.2698 24.539 17.3116 24.0141C18.4096 23.4605 19.365 22.6296 20.0764 21.6108L24.5094 15.2561C24.0069 14.8154 23.4136 14.5008 22.7642 14.3316L21.3436 16.3677L15.783 17.3585L17.0718 15.5109C18.1706 13.9356 19.8957 13.1436 21.615 13.1436C21.8418 13.1436 22.0686 13.1573 22.2926 13.1853C22.6648 13.23 23.0327 13.3135 23.3891 13.4345C24.0047 13.6425 24.5894 13.9637 25.1078 14.3978C25.3742 14.6203 25.6233 14.873 25.8501 15.1545C25.9415 15.2683 26.0301 15.3871 26.1143 15.5117C26.6529 16.3008 27.0366 17.2152 27.2152 18.2167C27.5529 20.1125 27.0899 21.9672 26.0675 23.4324C25.0466 24.8976 23.4662 25.9718 21.569 26.3102L8.08983 28.7107C8.08335 28.7121 8.07615 28.7129 8.06967 28.7129C7.98471 28.7129 7.92927 28.6149 7.98039 28.5408L10.3852 25.0927C10.2808 25.0445 10.1771 24.9948 10.0749 24.9429C9.59247 24.6974 9.13527 24.4051 8.70903 24.0703L6.37335 27.419C5.93055 28.0533 5.87799 28.8741 6.23511 29.5603C6.59367 30.2472 7.29639 30.6734 8.06967 30.6734C8.19063 30.6734 8.31231 30.6626 8.43255 30.6417L21.9124 28.2405C23.0997 28.0289 24.2106 27.5911 25.215 26.9381C26.1849 26.3073 27.0129 25.506 27.676 24.5541C28.3391 23.603 28.8057 22.5497 29.0627 21.4229C29.3284 20.255 29.3565 19.0613 29.1448 17.8747C28.9223 16.6176 28.4478 15.4512 27.735 14.4057Z" fill="#F97316"/>
</svg>
