<svg width="36" height="36" viewBox="0 0 36 36" fill="none" xmlns="http://www.w3.org/2000/svg">
<rect width="36" height="36" rx="7.5" fill="#F9FAFB"/>
<path d="M27.735 14.3292C27.5154 14.0066 27.2706 13.7035 27.0057 13.4213C26.7652 13.1657 26.506 12.9266 26.2324 12.7085C25.8465 12.4003 25.431 12.1318 24.9918 11.9086C24.8457 11.8344 24.6966 11.7646 24.5454 11.7005C24.2128 11.5586 23.8694 11.442 23.5187 11.3506C22.9002 11.1886 22.2587 11.105 21.615 11.105C20.4414 11.105 19.27 11.383 18.2282 11.9078C17.1309 12.4608 16.1747 13.2917 15.4641 14.3112L11.0303 20.6666C11.5329 21.1066 12.1269 21.4219 12.7756 21.5904L14.1962 19.5542L19.7567 18.5635L18.4672 20.411C17.3685 21.9864 15.6434 22.7784 13.924 22.7784C13.6972 22.7784 13.4704 22.7647 13.2465 22.7366C12.8742 22.692 12.5063 22.6085 12.1499 22.4875C11.5343 22.2794 10.9504 21.9583 10.432 21.5242C10.1656 21.3017 9.91647 21.0497 9.68967 20.7674C9.59751 20.6537 9.50967 20.5349 9.42471 20.4103C8.88615 19.6212 8.50239 18.7075 8.32383 17.7053C7.98615 15.8095 8.44911 13.9548 9.47151 12.4896C10.4925 11.0251 12.0729 9.95016 13.9694 9.61248L27.4485 7.21128C27.455 7.21056 27.4622 7.20984 27.4686 7.20984C27.5536 7.20984 27.609 7.30704 27.5572 7.38192L25.1524 10.8293C25.2568 10.8775 25.3605 10.9272 25.4634 10.979C25.9451 11.2238 26.403 11.5169 26.8293 11.8517L29.1657 8.50296C29.6078 7.86864 29.661 7.04784 29.3032 6.36168C28.9454 5.67624 28.2426 5.25 27.4694 5.25C27.3477 5.25 27.2246 5.2608 27.1043 5.2824L13.6259 7.6836C12.4386 7.89528 11.3277 8.33304 10.3233 8.98608C9.35415 9.61608 8.52615 10.4182 7.86303 11.37C7.19991 12.3211 6.73263 13.3752 6.47631 14.502C6.21063 15.6698 6.18327 16.8636 6.39423 18.0502C6.61743 19.3037 7.09263 20.4701 7.80543 21.5155C8.02503 21.8381 8.26911 22.1412 8.53479 22.4234C8.77527 22.6798 9.03375 22.9181 9.30807 23.1362C9.69399 23.4444 10.1094 23.713 10.5486 23.9362C10.6948 24.0103 10.8438 24.0802 10.995 24.1442C11.327 24.2861 11.6704 24.4027 12.021 24.4942C12.6395 24.6562 13.281 24.7397 13.9247 24.7397C15.0983 24.7397 16.2698 24.4625 17.3116 23.9376C18.4096 23.3839 19.365 22.553 20.0764 21.5342L24.5094 15.1795C24.0069 14.7389 23.4136 14.4242 22.7642 14.255L21.3436 16.2912L15.783 17.2819L17.0718 15.4344C18.1706 13.859 19.8957 13.067 21.615 13.067C21.8418 13.067 22.0686 13.0807 22.2926 13.1088C22.6648 13.1534 23.0327 13.237 23.3891 13.3579C24.0047 13.566 24.5894 13.8871 25.1078 14.3213C25.3742 14.5438 25.6233 14.7965 25.8501 15.078C25.9415 15.1918 26.0301 15.3106 26.1143 15.4351C26.6529 16.2242 27.0366 17.1386 27.2152 18.1402C27.5529 20.0359 27.0899 21.8906 26.0675 23.3558C25.0466 24.821 23.4662 25.8953 21.569 26.2337L8.08983 28.6342C8.08335 28.6356 8.07615 28.6363 8.06967 28.6363C7.98471 28.6363 7.92927 28.5384 7.98039 28.4642L10.3852 25.0162C10.2808 24.9679 10.1771 24.9182 10.0749 24.8664C9.59247 24.6209 9.13527 24.3286 8.70903 23.9938L6.37335 27.3425C5.93055 27.9768 5.87799 28.7976 6.23511 29.4838C6.59367 30.1706 7.29639 30.5969 8.06967 30.5969C8.19063 30.5969 8.31231 30.5861 8.43255 30.5652L21.9124 28.164C23.0997 27.9523 24.2106 27.5146 25.215 26.8615C26.1849 26.2308 27.0129 25.4294 27.676 24.4776C28.3391 23.5265 28.8057 22.4731 29.0627 21.3463C29.3284 20.1785 29.3565 18.9847 29.1448 17.7982C28.9223 16.541 28.4478 15.3746 27.735 14.3292Z" fill="#F97316"/>
</svg>
